<svg data-v-423bf9ae="" xmlns="http://www.w3.org/2000/svg" viewBox="0 0 492 90" class="iconLeftSlogan"><!----><!----><!----><g data-v-423bf9ae="" id="388eea3d-6a23-4107-8a41-c4220f9dbc88" fill="black" transform="matrix(5.819592475891113,0,0,5.819592475891113,106.56644439697266,-53.482051849365234)"><path d="M1.74 18.14L1.74 10.88L1.74 10.88Q1.74 10.75 1.16 10.60L1.16 10.60L1.16 10.60Q0.59 10.45 0.59 10.33L0.59 10.33L0.59 10.33Q0.59 9.71 2.00 9.71L2.00 9.71L2.60 9.72L2.60 9.72Q2.72 9.72 2.93 9.90L2.93 9.90L2.93 9.90Q3.13 10.08 3.24 10.27L3.24 10.27L6.84 16.75L6.84 16.75Q7.91 15.03 10.30 10.99L10.30 10.99L10.30 11.00L10.30 11.00Q10.34 10.94 10.46 10.69L10.46 10.69L10.46 10.69Q10.59 10.45 10.67 10.33L10.67 10.33L10.67 10.33Q10.75 10.21 10.88 10.04L10.88 10.04L10.88 10.04Q11.15 9.72 11.54 9.72L11.54 9.72L12.04 9.71L12.04 9.71Q13.29 9.71 13.29 10.33L13.29 10.33L13.29 10.33Q13.29 10.54 12.70 10.61L12.70 10.61L12.70 10.61Q12.11 10.67 12.11 10.88L12.11 10.88L12.11 18.14L12.11 18.14Q12.11 18.27 12.41 18.36L12.41 18.36L12.41 18.36Q12.70 18.44 13.00 18.52L13.00 18.52L13.00 18.52Q13.29 18.59 13.29 18.70L13.29 18.70L13.29 18.70Q13.29 19.33 11.94 19.33L11.94 19.33L11.40 19.31L10.83 19.33L10.83 19.33Q9.49 19.33 9.49 18.70L9.49 18.70L9.49 18.70Q9.49 18.55 9.78 18.49L9.78 18.49L9.78 18.49Q10.06 18.43 10.35 18.37L10.35 18.37L10.35 18.37Q10.63 18.31 10.63 18.14L10.63 18.14L10.63 12.04L10.63 12.04Q10.50 12.27 9.45 14.18L9.45 14.18L9.45 14.18Q7.69 17.38 7.05 18.13L7.05 18.13L7.05 18.12L7.05 18.12Q6.86 18.31 6.70 18.31L6.70 18.31L6.70 18.31Q6.54 18.31 6.43 18.28L6.43 18.28L6.43 18.28Q6.33 18.25 6.25 18.17L6.25 18.17L6.25 18.17Q6.17 18.09 6.13 18.04L6.13 18.04L6.13 18.04Q6.09 17.99 6.02 17.86L6.02 17.86L6.02 17.86Q5.95 17.73 5.93 17.68L5.93 17.68L2.94 12.78L2.94 18.14L2.94 18.14Q2.94 18.27 3.23 18.36L3.23 18.36L3.23 18.36Q3.53 18.44 3.82 18.52L3.82 18.52L3.82 18.52Q4.12 18.59 4.12 18.70L4.12 18.70L4.12 18.70Q4.12 19.32 2.85 19.32L2.85 19.32L2.35 19.31L1.83 19.33L1.83 19.33Q0.59 19.33 0.59 18.70L0.59 18.70L0.59 18.70Q0.59 18.54 0.88 18.48L0.88 18.48L0.88 18.48Q1.16 18.43 1.45 18.37L1.45 18.37L1.45 18.37Q1.74 18.31 1.74 18.14L1.74 18.14ZM17.53 19.49L17.53 19.49L17.53 19.49Q15.99 19.49 15.05 18.52L15.05 18.52L15.05 18.52Q14.10 17.54 14.10 16.04L14.10 16.04L14.10 16.04Q14.10 15.05 14.60 14.27L14.60 14.27L14.60 14.27Q15.10 13.49 15.95 13.07L15.95 13.07L15.95 13.07Q16.80 12.66 17.85 12.66L17.85 12.66L17.85 12.66Q19.35 12.66 20.33 13.60L20.33 13.60L20.33 13.60Q21.31 14.53 21.31 16.02L21.31 16.02L21.31 16.02Q21.31 17.04 20.81 17.84L20.81 17.84L20.81 17.84Q20.30 18.63 19.45 19.06L19.45 19.06L19.45 19.06Q18.59 19.49 17.53 19.49ZM17.81 18.73L17.81 18.73L17.81 18.73Q18.83 18.73 19.40 18.04L19.40 18.04L19.40 18.04Q19.97 17.35 19.97 16.20L19.97 16.20L19.97 16.20Q19.97 15.05 19.32 14.22L19.32 14.22L19.32 14.22Q18.66 13.38 17.63 13.38L17.63 13.38L17.63 13.38Q16.60 13.38 16.05 14.09L16.05 14.09L16.05 14.09Q15.50 14.79 15.50 15.93L15.50 15.93L15.50 15.93Q15.50 17.08 16.15 17.90L16.15 17.90L16.15 17.90Q16.80 18.73 17.81 18.73ZM28.78 19.32L28.78 19.32L28.19 19.33L28.19 19.33Q27.30 19.33 27.08 19.05L27.08 19.05L27.08 19.05Q26.99 18.93 26.99 18.75L26.99 18.75L26.99 18.75Q26.99 18.58 27.13 18.51L27.13 18.51L27.13 18.51Q27.26 18.44 27.43 18.44L27.43 18.44L27.43 18.44Q27.60 18.43 27.73 18.33L27.73 18.33L27.73 18.33Q27.87 18.23 27.87 18.01L27.87 18.01L27.88 16.02L27.88 16.02Q27.88 14.77 27.58 14.17L27.58 14.17L27.58 14.17Q27.25 13.50 26.21 13.50L26.21 13.50L26.21 13.50Q25.12 13.50 24.68 14.19L24.68 14.19L24.68 14.19Q24.28 14.83 24.28 16.06L24.28 16.06L24.28 18.01L24.28 18.01Q24.28 18.41 24.72 18.43L24.72 18.43L24.72 18.43Q25.16 18.46 25.16 18.79L25.16 18.79L25.16 18.79Q25.16 19.16 24.75 19.25L24.75 19.25L24.75 19.25Q24.45 19.32 23.89 19.32L23.89 19.32L23.30 19.33L23.30 19.33Q22.41 19.33 22.20 19.05L22.20 19.05L22.20 19.05Q22.10 18.93 22.10 18.75L22.10 18.75L22.10 18.75Q22.10 18.58 22.24 18.51L22.24 18.51L22.24 18.51Q22.37 18.44 22.54 18.44L22.54 18.44L22.54 18.44Q22.71 18.43 22.85 18.33L22.85 18.33L22.85 18.33Q22.98 18.23 22.98 18.01L22.98 18.01L22.98 10.57L22.98 10.57Q22.98 10.17 22.49 10.09L22.49 10.09L22.49 10.09Q22.15 10.04 22.08 9.97L22.08 9.97L22.08 9.97Q22.00 9.91 22.00 9.75L22.00 9.75L22.00 9.75Q22.00 9.60 22.15 9.48L22.15 9.48L22.15 9.48Q22.29 9.36 22.52 9.30L22.52 9.30L22.52 9.30Q22.93 9.19 23.44 9.19L23.44 9.19L23.44 9.19Q24.29 9.19 24.29 9.70L24.29 9.70L24.29 13.67L24.29 13.67Q25.22 12.62 26.64 12.62L26.64 12.62L26.64 12.62Q28.06 12.62 28.62 13.35L28.62 13.35L28.62 13.35Q29.18 14.08 29.18 15.55L29.18 15.55L29.17 18.01L29.17 18.01Q29.17 18.41 29.61 18.43L29.61 18.43L29.61 18.43Q30.05 18.46 30.05 18.79L30.05 18.79L30.05 18.79Q30.05 19.16 29.64 19.25L29.64 19.25L29.64 19.25Q29.33 19.32 28.78 19.32ZM32.03 14.98L32.03 14.98L32.03 14.98Q31.77 14.98 31.46 14.78L31.46 14.78L31.46 14.78Q31.14 14.58 31.14 14.26L31.14 14.26L31.14 14.26Q31.14 13.93 31.32 13.64L31.32 13.64L31.32 13.64Q31.51 13.36 31.80 13.18L31.80 13.18L31.80 13.18Q32.09 13.00 32.48 12.87L32.48 12.87L32.48 12.87Q33.20 12.65 34.02 12.65L34.02 12.65L34.02 12.65Q35.40 12.65 36.02 13.26L36.02 13.26L36.02 13.26Q36.65 13.87 36.65 15.28L36.65 15.28L36.64 17.29L36.64 17.29Q36.64 18.03 36.83 18.21L36.83 18.21L36.83 18.21Q36.87 18.26 37.13 18.33L37.13 18.33L37.13 18.33Q37.82 18.55 37.82 18.67L37.82 18.67L37.82 18.67Q37.82 19.39 36.35 19.39L36.35 19.39L36.35 19.39Q35.80 19.39 35.63 19.14L35.63 19.14L35.63 19.14Q35.46 18.89 35.45 18.25L35.45 18.25L35.45 18.25Q35.14 18.80 34.51 19.14L34.51 19.14L34.51 19.14Q33.89 19.48 33.17 19.48L33.17 19.48L33.17 19.48Q32.45 19.48 31.95 19.30L31.95 19.30L31.95 19.30Q31.45 19.11 31.14 18.70L31.14 18.70L31.14 18.70Q30.83 18.29 30.83 17.81L30.83 17.81L30.83 17.81Q30.83 17.33 30.94 17.04L30.94 17.04L30.94 17.04Q31.05 16.75 31.21 16.55L31.21 16.55L31.21 16.55Q31.38 16.35 31.66 16.19L31.66 16.19L31.66 16.19Q31.94 16.04 32.19 15.94L32.19 15.94L32.19 15.94Q32.44 15.85 32.83 15.78L32.83 15.78L32.83 15.78Q33.40 15.67 33.79 15.62L33.79 15.62L33.79 15.62Q34.18 15.58 34.19 15.57L34.19 15.57L34.19 15.57Q34.23 15.57 34.66 15.52L34.66 15.52L34.66 15.52Q35.09 15.48 35.33 15.34L35.33 15.34L35.33 15.34Q35.33 14.04 34.99 13.64L34.99 13.64L34.99 13.64Q34.68 13.30 33.97 13.30L33.97 13.30L33.97 13.30Q33.27 13.30 32.92 13.66L32.92 13.66L32.92 13.66Q32.57 14.02 32.57 14.80L32.57 14.80L32.57 14.95L32.57 14.95Q32.29 14.98 32.03 14.98ZM35.33 15.96L35.33 15.96L35.33 15.96Q34.87 16.13 34.29 16.19L34.29 16.19L34.29 16.19Q33.70 16.26 33.37 16.34L33.37 16.34L33.37 16.34Q33.03 16.43 32.81 16.56L32.81 16.56L32.81 16.56Q32.29 16.86 32.29 17.60L32.29 17.60L32.29 17.60Q32.29 18.77 33.65 18.77L33.65 18.77L33.65 18.77Q34.84 18.77 35.15 17.64L35.15 17.64L35.15 17.64Q35.33 17.00 35.33 15.96ZM40.50 19.32L40.50 19.32L39.92 19.33L39.92 19.33Q39.02 19.33 38.81 19.05L38.81 19.05L38.81 19.05Q38.71 18.93 38.71 18.75L38.71 18.75L38.71 18.75Q38.71 18.58 38.85 18.51L38.85 18.51L38.85 18.51Q38.99 18.44 39.15 18.44L39.15 18.44L39.15 18.44Q39.32 18.43 39.46 18.33L39.46 18.33L39.46 18.33Q39.59 18.23 39.59 18.01L39.59 18.01L39.59 14.11L39.59 14.11Q39.59 13.90 39.44 13.80L39.44 13.80L39.44 13.80Q39.29 13.70 39.11 13.69L39.11 13.69L39.11 13.69Q38.62 13.66 38.62 13.38L38.62 13.38L38.62 13.38Q38.62 12.93 39.52 12.77L39.52 12.77L39.52 12.77Q39.72 12.73 39.90 12.73L39.90 12.73L39.90 12.73Q40.49 12.73 40.66 12.90L40.66 12.90L40.66 12.90Q40.83 13.08 40.83 13.68L40.83 13.68L40.83 13.68Q41.77 12.63 43.39 12.63L43.39 12.63L43.39 12.63Q43.95 12.63 44.48 12.96L44.48 12.96L44.48 12.96Q45.01 13.30 45.30 13.75L45.30 13.75L45.30 13.75Q46.46 12.62 47.89 12.62L47.89 12.62L47.89 12.62Q49.53 12.62 49.98 14.03L49.98 14.03L49.98 14.03Q50.23 14.79 50.23 16.10L50.23 16.10L50.23 18.01L50.23 18.01Q50.23 18.41 50.67 18.43L50.67 18.43L50.67 18.43Q51.11 18.46 51.11 18.79L51.11 18.79L51.11 18.79Q51.11 19.16 50.70 19.25L50.70 19.25L50.70 19.25Q50.39 19.32 49.84 19.32L49.84 19.32L49.25 19.33L49.25 19.33Q48.36 19.33 48.15 19.05L48.15 19.05L48.15 19.05Q48.05 18.93 48.05 18.75L48.05 18.75L48.05 18.75Q48.05 18.58 48.19 18.51L48.19 18.51L48.19 18.51Q48.32 18.44 48.49 18.44L48.49 18.44L48.49 18.44Q48.66 18.43 48.79 18.33L48.79 18.33L48.79 18.33Q48.93 18.23 48.93 18.01L48.93 18.01L48.93 15.91L48.93 15.91Q48.93 14.35 48.58 13.92L48.58 13.92L48.58 13.92Q48.25 13.50 47.65 13.50L47.65 13.50L47.65 13.50Q47.04 13.50 46.59 13.66L46.59 13.66L46.59 13.66Q46.14 13.82 45.86 14.16L45.86 14.16L45.86 14.16Q45.57 14.50 45.57 14.96L45.57 14.96L45.57 18.01L45.57 18.01Q45.57 18.41 46.01 18.43L46.01 18.43L46.01 18.43Q46.45 18.46 46.45 18.79L46.45 18.79L46.45 18.79Q46.45 19.16 46.04 19.25L46.04 19.25L46.04 19.25Q45.73 19.32 45.18 19.32L45.18 19.32L44.59 19.33L44.59 19.33Q43.70 19.33 43.48 19.05L43.48 19.05L43.48 19.05Q43.39 18.93 43.39 18.75L43.39 18.75L43.39 18.75Q43.39 18.58 43.52 18.51L43.52 18.51L43.52 18.51Q43.66 18.44 43.83 18.44L43.83 18.44L43.83 18.44Q44.00 18.43 44.13 18.33L44.13 18.33L44.13 18.33Q44.27 18.23 44.27 18.01L44.27 18.01L44.27 15.98L44.27 15.98Q44.27 14.69 44.04 14.21L44.04 14.21L44.04 14.21Q43.72 13.50 42.92 13.50L42.92 13.50L42.92 13.50Q41.94 13.50 41.42 14L41.42 14L41.42 14Q40.89 14.50 40.89 15.42L40.89 15.42L40.89 18.01L40.89 18.01Q40.89 18.41 41.33 18.43L41.33 18.43L41.33 18.43Q41.77 18.46 41.77 18.79L41.77 18.79L41.77 18.79Q41.77 19.16 41.36 19.25L41.36 19.25L41.36 19.25Q41.05 19.32 40.50 19.32ZM52.68 18.57L52.68 18.57L52.68 18.57Q51.73 17.64 51.73 16.11L51.73 16.11L51.73 16.11Q51.73 14.57 52.69 13.61L52.69 13.61L52.69 13.61Q53.64 12.65 55.12 12.65L55.12 12.65L55.12 12.65Q56.29 12.65 57.09 13.40L57.09 13.40L57.09 13.40Q57.89 14.16 57.89 15.30L57.89 15.30L57.89 15.30Q57.89 15.85 57.02 15.85L57.02 15.85L53.06 15.85L53.06 15.85Q53.07 16.96 53.78 17.72L53.78 17.72L53.78 17.72Q54.48 18.48 55.56 18.48L55.56 18.48L55.56 18.48Q56.27 18.48 56.94 18.06L56.94 18.06L56.94 18.06Q57.29 17.84 57.39 17.84L57.39 17.84L57.39 17.84Q57.49 17.84 57.62 17.94L57.62 17.94L57.62 17.94Q57.74 18.04 57.74 18.18L57.74 18.18L57.74 18.18Q57.74 18.56 57.26 18.88L57.26 18.88L57.26 18.88Q56.78 19.20 56.20 19.35L56.20 19.35L56.20 19.35Q55.62 19.50 55.18 19.50L55.18 19.50L55.18 19.50Q53.63 19.50 52.68 18.57ZM56.64 15.13L56.64 15.13L56.64 15.13Q56.62 14.35 56.23 13.86L56.23 13.86L56.23 13.86Q55.83 13.36 55.07 13.36L55.07 13.36L55.07 13.36Q54.30 13.36 53.73 13.91L53.73 13.91L53.73 13.91Q53.16 14.46 53.13 15.16L53.13 15.16L54.73 15.16L54.73 15.16Q55.79 15.16 56.64 15.13ZM63.87 14.18L63.87 14.18Q63.58 13.81 63.04 13.59L63.04 13.59L63.04 13.59Q62.51 13.36 61.84 13.36L61.84 13.36L61.84 13.36Q61.18 13.36 60.72 13.75L60.72 13.75L60.72 13.75Q59.81 14.49 59.81 15.95L59.81 15.95L59.81 15.95Q59.81 17.08 60.43 17.86L60.43 17.86L60.43 17.86Q61.04 18.64 62.02 18.64L62.02 18.64L62.02 18.64Q63 18.64 63.43 18.23L63.43 18.23L63.43 18.23Q63.87 17.83 63.87 16.88L63.87 16.88L63.87 14.18ZM61.98 12.63L61.98 12.63L61.98 12.63Q62.43 12.63 62.99 12.77L62.99 12.77L62.99 12.77Q63.55 12.92 63.87 13.08L63.87 13.08L63.87 10.79L63.87 10.79Q63.87 10.17 63.38 10.12L63.38 10.12L63.38 10.12Q63.33 10.12 63.25 10.11L63.25 10.11L63.25 10.11Q63.18 10.10 63.14 10.10L63.14 10.10L63.14 10.10Q63.11 10.10 63.06 10.09L63.06 10.09L63.06 10.09Q63.01 10.08 62.98 10.06L62.98 10.06L62.98 10.06Q62.96 10.05 62.94 10.03L62.94 10.03L62.94 10.03Q62.89 9.99 62.89 9.83L62.89 9.83L62.89 9.83Q62.89 9.67 63.10 9.50L63.10 9.50L63.10 9.50Q63.49 9.19 64.13 9.19L64.13 9.19L64.13 9.19Q64.83 9.19 64.94 9.27L64.94 9.27L64.94 9.27Q65.17 9.43 65.17 9.70L65.17 9.70L65.17 17.18L65.17 17.18Q65.17 17.94 65.34 18.16L65.34 18.16L65.34 18.16Q65.51 18.38 65.64 18.43L65.64 18.43L65.64 18.43Q65.78 18.48 65.87 18.51L65.87 18.51L65.87 18.51Q65.97 18.55 66.01 18.56L66.01 18.56L66.01 18.56Q66.06 18.58 66.12 18.62L66.12 18.62L66.12 18.62Q66.23 18.68 66.23 18.81L66.23 18.81L66.23 18.81Q66.23 19.10 65.92 19.23L65.92 19.23L65.92 19.23Q65.62 19.37 65.12 19.37L65.12 19.37L65.12 19.37Q64.61 19.37 64.39 19.17L64.39 19.17L64.39 19.17Q64.16 18.98 63.99 18.47L63.99 18.47L63.99 18.47Q63.43 19.46 61.65 19.46L61.65 19.46L61.65 19.46Q60.23 19.46 59.34 18.52L59.34 18.52L59.34 18.52Q58.45 17.58 58.45 16.07L58.45 16.07L58.45 16.07Q58.45 14.57 59.44 13.60L59.44 13.60L59.44 13.60Q60.43 12.63 61.98 12.63Z"></path></g><!----><g data-v-423bf9ae="" id="0cb21560-3be5-45f3-8a84-4da5b2c36028" transform="matrix(2.8125,0,0,2.8125,0,0)" stroke="none" fill="black"><path d="M29.625 1l-3.099 3.172H4.054v23.657h22.472L29.625 31H1V1h28.625M32 0H0v32h32l-5.054-5.172H5.054V5.172h21.893L32 0z"></path><path d="M21.038 10.962v10.076H10.962V10.962h10.076m1-1H9.962v12.076h12.076V9.962z"></path></g><!----><g data-v-423bf9ae="" id="7c74c329-514c-4e88-9fda-15229679b0c5" fill="black" transform="matrix(1.779632329940796,0,0,1.779632329940796,109.07459259033203,54.83906173706055)"><path d="M0.52 3.51C0.52 3.75 0.60 3.79 0.77 3.79L1.62 3.77C1.68 3.77 1.74 5.52 1.74 7.11L1.74 11.63C1.74 11.93 1.72 12.18 1.69 12.18L0.97 12.18C0.74 12.18 0.67 12.19 0.67 12.39C0.67 12.63 0.70 12.68 0.90 12.68C1.02 12.68 1.97 12.64 2.39 12.64C2.58 12.64 3.09 12.67 3.74 12.67C5.29 12.67 7.70 12.43 7.70 10.23C7.70 8.27 5.88 7.94 5.19 7.84C5.11 7.83 5.10 7.83 5.10 7.81C5.10 7.80 5.14 7.78 5.21 7.76C5.85 7.52 7.29 6.90 7.29 5.54C7.29 3.81 5.82 3.25 4.14 3.25C3.57 3.25 2.97 3.29 2.42 3.29C2.00 3.29 0.99 3.26 0.77 3.26C0.59 3.26 0.52 3.28 0.52 3.51ZM2.97 8.19C2.97 8.12 2.97 8.08 3.08 8.08L3.56 8.08C4.17 8.08 4.82 8.09 5.19 8.22C6.06 8.51 6.38 9.16 6.38 10.14C6.38 11.17 5.92 12.18 3.91 12.18L3.07 12.18C2.98 12.18 2.97 9.02 2.97 8.19ZM2.97 7.59L2.97 6.92C2.97 5.87 2.98 3.71 3.02 3.68C3.08 3.65 3.39 3.63 3.60 3.63C5.01 3.63 6.03 4.41 6.03 5.77C6.03 6.92 5.31 7.46 4.68 7.66C4.59 7.69 4.49 7.70 4.41 7.70C4.33 7.70 4.19 7.69 3.95 7.69L3.15 7.69C2.97 7.69 2.97 7.67 2.97 7.59ZM15.81 12.39C15.81 12.63 15.83 12.68 16.03 12.68C16.35 12.68 17.32 12.64 17.74 12.64C18.16 12.64 22.67 12.68 22.99 12.68C23.11 12.68 23.27 12.66 23.27 12.49C23.27 12.07 23.31 11.23 23.31 10.53C23.31 10.39 23.16 10.39 23.03 10.39C22.92 10.39 22.79 10.39 22.79 10.51C22.78 11.06 22.78 11.41 22.75 11.76C22.72 12.01 22.72 12.04 22.62 12.04C22.47 12.04 19.84 12.08 18.34 12.08C18.27 12.08 18.23 10.11 18.19 8.26C18.19 8.06 18.23 8.09 18.37 8.09L20.65 8.09C21.35 8.09 21.38 8.20 21.38 8.30L21.38 9.00C21.38 9.14 21.56 9.14 21.67 9.14C21.77 9.14 21.90 9.13 21.90 9.02C21.90 8.83 21.87 8.33 21.87 7.83C21.87 7.32 21.90 6.83 21.90 6.71C21.90 6.59 21.76 6.58 21.66 6.58C21.55 6.58 21.38 6.59 21.38 6.72L21.38 7.45C21.38 7.62 20.93 7.63 20.65 7.63L18.31 7.63C18.20 7.63 18.19 7.63 18.19 7.45C18.17 6.75 18.16 6.06 18.16 5.46C18.16 5.12 18.16 3.71 18.24 3.71C19.47 3.71 21.98 3.75 21.98 3.81C21.98 3.99 21.94 4.83 21.94 4.89C21.94 5.04 22.01 5.10 22.19 5.10C22.39 5.10 22.46 5.08 22.46 4.94C22.46 3.85 22.51 3.36 22.51 3.09C22.51 2.91 22.43 2.90 22.23 2.90C22.04 2.90 22.04 2.95 22.01 3.11C21.99 3.25 22.06 3.25 21.15 3.25C20.54 3.25 18.40 3.29 17.63 3.29C17.14 3.29 16.20 3.25 16.10 3.25C15.97 3.25 15.92 3.30 15.92 3.49C15.92 3.72 15.99 3.74 16.16 3.74L16.81 3.74C16.87 3.74 16.94 4.79 16.94 5.71C16.94 5.80 17.00 8.27 17.00 9.83L17.00 11.17C17.00 11.84 16.97 12.18 16.94 12.18L16.09 12.18C15.86 12.18 15.81 12.21 15.81 12.39ZM31.01 5.01C31.01 5.17 31.19 5.17 31.32 5.17C31.47 5.17 31.51 5.15 31.53 4.97L31.64 3.89C31.65 3.81 32.20 3.75 32.96 3.75L34.94 3.75C35 3.75 35.03 4.35 35.03 4.97C35.03 6.43 34.97 12.18 34.85 12.18L33.98 12.18C33.75 12.18 33.71 12.19 33.71 12.39C33.71 12.63 33.73 12.68 33.92 12.68C34.24 12.68 35.22 12.64 35.64 12.64C36.06 12.64 37.00 12.68 37.32 12.68C37.49 12.68 37.52 12.61 37.52 12.40C37.52 12.24 37.49 12.18 37.32 12.18L36.33 12.18C36.30 12.18 36.30 11.76 36.30 11.31C36.30 9.56 36.39 5.96 36.39 5.92C36.40 5.18 36.40 3.75 36.50 3.75L38.11 3.75C38.82 3.75 39.65 3.78 39.65 3.85C39.65 3.99 39.61 4.90 39.61 4.97C39.61 5.12 39.68 5.17 39.86 5.17C40.05 5.17 40.12 5.17 40.12 5.03C40.12 3.93 40.18 3.40 40.18 3.14C40.18 2.94 40.10 2.94 39.90 2.94C39.75 2.94 39.69 2.98 39.68 3.16C39.68 3.23 39.03 3.28 38.19 3.28L33.19 3.28C32.54 3.28 31.72 3.28 31.72 3.21L31.72 3.07C31.72 2.94 31.60 2.94 31.50 2.94C31.28 2.94 31.25 3.00 31.23 3.19C31.18 3.89 31.01 4.97 31.01 5.01ZM47.67 5.01C47.67 5.17 47.85 5.17 47.98 5.17C48.13 5.17 48.17 5.15 48.19 4.97L48.30 3.89C48.31 3.81 48.86 3.75 49.62 3.75L51.60 3.75C51.66 3.75 51.69 4.35 51.69 4.97C51.69 6.43 51.63 12.18 51.51 12.18L50.64 12.18C50.41 12.18 50.37 12.19 50.37 12.39C50.37 12.63 50.39 12.68 50.58 12.68C50.90 12.68 51.88 12.64 52.30 12.64C52.72 12.64 53.66 12.68 53.98 12.68C54.15 12.68 54.18 12.61 54.18 12.40C54.18 12.24 54.15 12.18 53.98 12.18L52.99 12.18C52.96 12.18 52.96 11.76 52.96 11.31C52.96 9.56 53.05 5.96 53.05 5.92C53.06 5.18 53.06 3.75 53.16 3.75L54.77 3.75C55.48 3.75 56.31 3.78 56.31 3.85C56.31 3.99 56.27 4.90 56.27 4.97C56.27 5.12 56.34 5.17 56.52 5.17C56.71 5.17 56.78 5.17 56.78 5.03C56.78 3.93 56.84 3.40 56.84 3.14C56.84 2.94 56.76 2.94 56.56 2.94C56.41 2.94 56.35 2.98 56.34 3.16C56.34 3.23 55.69 3.28 54.85 3.28L49.85 3.28C49.20 3.28 48.38 3.28 48.38 3.21L48.38 3.07C48.38 2.94 48.26 2.94 48.16 2.94C47.94 2.94 47.91 3.00 47.89 3.19C47.84 3.89 47.67 4.97 47.67 5.01ZM64.60 12.39C64.60 12.63 64.62 12.68 64.82 12.68C65.14 12.68 66.11 12.64 66.53 12.64C66.95 12.64 71.46 12.68 71.78 12.68C71.90 12.68 72.06 12.66 72.06 12.49C72.06 12.07 72.10 11.23 72.10 10.53C72.10 10.39 71.95 10.39 71.82 10.39C71.71 10.39 71.58 10.39 71.58 10.51C71.57 11.06 71.57 11.41 71.54 11.76C71.51 12.01 71.51 12.04 71.41 12.04C71.26 12.04 68.63 12.08 67.13 12.08C67.06 12.08 67.02 10.11 66.98 8.26C66.98 8.06 67.02 8.09 67.16 8.09L69.44 8.09C70.14 8.09 70.17 8.20 70.17 8.30L70.17 9.00C70.17 9.14 70.35 9.14 70.46 9.14C70.56 9.14 70.69 9.13 70.69 9.02C70.69 8.83 70.66 8.33 70.66 7.83C70.66 7.32 70.69 6.83 70.69 6.71C70.69 6.59 70.55 6.58 70.45 6.58C70.34 6.58 70.17 6.59 70.17 6.72L70.17 7.45C70.17 7.62 69.72 7.63 69.44 7.63L67.10 7.63C66.99 7.63 66.98 7.63 66.98 7.45C66.96 6.75 66.95 6.06 66.95 5.46C66.95 5.12 66.95 3.71 67.03 3.71C68.26 3.71 70.77 3.75 70.77 3.81C70.77 3.99 70.73 4.83 70.73 4.89C70.73 5.04 70.80 5.10 70.98 5.10C71.18 5.10 71.25 5.08 71.25 4.94C71.25 3.85 71.30 3.36 71.30 3.09C71.30 2.91 71.22 2.90 71.02 2.90C70.83 2.90 70.83 2.95 70.80 3.11C70.78 3.25 70.85 3.25 69.94 3.25C69.33 3.25 67.19 3.29 66.42 3.29C65.93 3.29 64.99 3.25 64.89 3.25C64.76 3.25 64.71 3.30 64.71 3.49C64.71 3.72 64.78 3.74 64.95 3.74L65.60 3.74C65.66 3.74 65.73 4.79 65.73 5.71C65.73 5.80 65.79 8.27 65.79 9.83L65.79 11.17C65.79 11.84 65.76 12.18 65.73 12.18L64.88 12.18C64.65 12.18 64.60 12.21 64.60 12.39ZM80.07 3.51C80.07 3.72 80.14 3.79 80.33 3.79L81.14 3.77C81.24 3.77 81.28 6.61 81.28 8.55L81.28 10.42C81.28 11.30 81.27 12.18 81.23 12.18L80.63 12.18C80.40 12.18 80.33 12.19 80.33 12.39C80.33 12.63 80.37 12.68 80.57 12.68C80.70 12.68 81.52 12.64 81.94 12.64C82.36 12.64 83.13 12.68 83.45 12.68C83.62 12.68 83.65 12.61 83.65 12.40C83.65 12.24 83.62 12.18 83.45 12.18L82.64 12.18C82.57 12.18 82.49 9.18 82.49 8.37C82.49 8.30 82.49 8.26 82.60 8.26C82.99 8.26 83.59 8.27 83.89 8.27C86.13 8.32 86.27 10.00 86.27 11.68L86.27 12.49C86.27 12.61 86.32 12.64 86.42 12.64C86.42 12.64 87.86 12.68 88.34 12.68C88.51 12.68 88.56 12.64 88.56 12.53C88.56 12.24 88.51 12.18 88.35 12.18L87.71 12.18C87.61 12.18 87.58 12.14 87.56 11.31C87.47 8.99 86.10 8.34 85.19 8.05C85.05 8.01 85.08 8.01 85.19 7.95C85.78 7.69 87.09 6.94 87.09 5.63C87.09 3.63 85.40 3.21 84 3.21C83.68 3.21 82.39 3.29 81.97 3.29C81.55 3.29 80.57 3.26 80.35 3.26C80.16 3.26 80.07 3.28 80.07 3.51ZM82.49 7.80L82.49 4.40C82.49 4.05 82.52 3.68 82.56 3.68C82.77 3.65 83.05 3.65 83.27 3.65C84.57 3.65 85.82 4.47 85.82 5.82C85.82 6.99 85.27 7.57 84.62 7.88C84.57 7.90 84.53 7.90 84.46 7.90C83.99 7.88 83.27 7.88 82.67 7.87C82.50 7.87 82.49 7.85 82.49 7.80ZM105.84 3.51C105.84 3.75 105.88 3.79 106.09 3.79L107.02 3.77C107.07 3.77 107.07 4.47 107.07 5.24L107.07 5.96C107.07 7.70 107.06 12.18 106.95 12.18L106.27 12.18C106.05 12.18 105.98 12.19 105.98 12.39C105.98 12.63 105.99 12.68 106.19 12.68C106.32 12.68 107.30 12.64 107.72 12.64C108.14 12.64 109.00 12.68 109.33 12.68C109.49 12.68 109.52 12.61 109.52 12.40C109.52 12.24 109.49 12.18 109.33 12.18L108.33 12.18C108.29 12.18 108.28 10.60 108.28 9.58L108.28 8.65C108.28 8.57 108.28 8.54 108.37 8.54C108.77 8.54 109.09 8.58 109.59 8.58C111.58 8.58 112.98 7.83 112.98 6.01C112.98 4.09 111.50 3.22 109.58 3.22C109.26 3.22 108.16 3.29 107.74 3.29C107.51 3.29 106.32 3.26 106.09 3.26C105.91 3.26 105.84 3.28 105.84 3.51ZM108.29 8.05L108.29 4.40C108.29 4.05 108.30 3.70 108.35 3.68C108.47 3.67 108.64 3.67 108.78 3.67C110.43 3.67 111.69 4.47 111.69 5.80C111.69 7.57 110.36 8.19 108.78 8.19C108.53 8.19 108.29 8.16 108.29 8.05ZM120.60 12.39C120.60 12.63 120.64 12.68 120.83 12.68C121.16 12.68 121.91 12.64 122.63 12.64C123.28 12.64 124.08 12.68 124.31 12.68C124.47 12.68 124.50 12.61 124.50 12.40C124.50 12.24 124.47 12.18 124.31 12.18L123.34 12.18C123.24 12.18 123.21 9.55 123.21 7.76L123.21 5.87C123.21 5.14 123.24 3.70 123.34 3.70L124.25 3.70C124.47 3.70 124.50 3.68 124.50 3.49C124.50 3.25 124.47 3.19 124.31 3.19C123.98 3.19 123.31 3.23 122.65 3.23C121.84 3.23 121.13 3.19 120.90 3.19C120.72 3.19 120.65 3.21 120.65 3.44C120.65 3.68 120.74 3.70 120.90 3.70L121.83 3.70C121.87 3.70 121.94 4.79 121.94 5.71L121.94 7.08C121.94 8.92 121.93 12.18 121.81 12.18L120.89 12.18C120.67 12.18 120.60 12.19 120.60 12.39ZM132.40 12.39C132.40 12.59 132.43 12.64 132.55 12.64C134.01 12.64 138.07 12.68 139.64 12.68C139.76 12.68 139.87 12.66 139.87 12.49C139.87 12.07 139.92 11.21 139.92 10.51C139.92 10.37 139.76 10.37 139.64 10.37C139.54 10.37 139.34 10.39 139.34 10.50C139.33 11.05 139.33 11.41 139.30 11.76C139.27 12.01 139.31 12.04 139.22 12.04L134.46 12.04C134.29 12.04 134.34 11.91 134.44 11.77C136.43 8.37 139.75 3.81 139.75 3.56C139.75 3.35 139.71 3.30 139.52 3.30L134.13 3.30C133.36 3.30 133.35 3.26 133.35 3.22L133.36 3.11C133.38 3.01 133.17 3.00 133.06 3.00C132.86 3.00 132.87 3.05 132.86 3.12C132.73 4.06 132.55 5.11 132.55 5.15C132.55 5.26 132.89 5.29 132.96 5.29C133.08 5.29 133.08 5.19 133.11 5.04C133.13 4.98 133.24 4.27 133.29 3.95C133.31 3.85 133.31 3.84 133.36 3.84L137.73 3.84C137.84 3.84 137.89 3.85 137.89 3.88C137.89 3.89 137.89 3.92 137.86 3.95C135.69 7.38 132.40 12.18 132.40 12.39ZM147.81 12.39C147.81 12.59 147.84 12.64 147.97 12.64C149.42 12.64 153.48 12.68 155.05 12.68C155.18 12.68 155.29 12.66 155.29 12.49C155.29 12.07 155.33 11.21 155.33 10.51C155.33 10.37 155.18 10.37 155.05 10.37C154.95 10.37 154.76 10.39 154.76 10.50C154.74 11.05 154.74 11.41 154.71 11.76C154.69 12.01 154.73 12.04 154.63 12.04L149.87 12.04C149.70 12.04 149.76 11.91 149.86 11.77C151.84 8.37 155.16 3.81 155.16 3.56C155.16 3.35 155.12 3.30 154.94 3.30L149.55 3.30C148.78 3.30 148.76 3.26 148.76 3.22L148.78 3.11C148.79 3.01 148.58 3.00 148.47 3.00C148.27 3.00 148.29 3.05 148.27 3.12C148.15 4.06 147.97 5.11 147.97 5.15C147.97 5.26 148.30 5.29 148.37 5.29C148.50 5.29 148.50 5.19 148.53 5.04C148.54 4.98 148.65 4.27 148.71 3.95C148.72 3.85 148.72 3.84 148.78 3.84L153.15 3.84C153.26 3.84 153.30 3.85 153.30 3.88C153.30 3.89 153.30 3.92 153.27 3.95C151.10 7.38 147.81 12.18 147.81 12.39ZM163.09 12.39C163.09 12.63 163.09 12.68 163.28 12.68C163.45 12.68 163.77 12.64 164.35 12.64C164.96 12.64 165.51 12.68 165.66 12.68C165.83 12.68 165.83 12.61 165.83 12.40C165.83 12.24 165.83 12.18 165.66 12.18L164.58 12.18C164.58 12.18 164.57 12.18 164.57 12.17C164.58 11.87 165.35 9.90 165.70 9.02C165.77 8.83 165.79 8.79 166.00 8.79L168.83 8.79C168.97 8.79 168.97 8.81 169.04 9.03C169.30 9.77 170.02 11.89 170.02 12.17C170.02 12.18 170.00 12.18 170.00 12.18L169.23 12.18C169.01 12.18 168.99 12.19 168.99 12.39C168.99 12.63 169.01 12.68 169.18 12.68C169.50 12.68 170.37 12.64 170.79 12.64C171.21 12.64 171.88 12.68 172.09 12.68C172.23 12.68 172.24 12.61 172.24 12.40C172.24 12.24 172.23 12.18 172.09 12.18L171.60 12.18C171.50 12.18 170.48 9.34 169.92 7.78L168.24 3.07C168.22 3.00 168.15 2.94 168.07 2.94C167.94 2.94 167.85 3.16 167.76 3.35C167.61 3.71 167.37 3.84 167.26 4.13L165.77 7.57C165.59 8.01 163.88 12.18 163.76 12.18L163.34 12.18C163.11 12.18 163.09 12.19 163.09 12.39ZM165.98 8.33C165.98 8.30 166.01 8.23 166.05 8.13L167.43 4.77C167.47 4.66 167.50 4.61 167.52 4.61C167.54 4.61 167.55 4.63 167.59 4.77L168.76 8.18C168.78 8.25 168.80 8.29 168.80 8.32C168.80 8.36 168.77 8.37 168.67 8.37L166.17 8.37C165.98 8.37 165.98 8.34 165.98 8.33Z"></path></g></svg>