<svg data-v-423bf9ae="" xmlns="http://www.w3.org/2000/svg" viewBox="0 0 381.99808543645025 60" class="font"><!----><!----><!----><g data-v-423bf9ae="" id="44884e29-f726-4f37-8509-4b27a198c027" fill="black" transform="matrix(5.819592475891113,0,0,5.819592475891113,-3.4335672855377197,-53.482051849365234)"><path d="M1.74 18.14L1.74 10.88L1.74 10.88Q1.74 10.75 1.16 10.60L1.16 10.60L1.16 10.60Q0.59 10.45 0.59 10.33L0.59 10.33L0.59 10.33Q0.59 9.71 2.00 9.71L2.00 9.71L2.60 9.72L2.60 9.72Q2.72 9.72 2.93 9.90L2.93 9.90L2.93 9.90Q3.13 10.08 3.24 10.27L3.24 10.27L6.84 16.75L6.84 16.75Q7.91 15.03 10.30 10.99L10.30 10.99L10.30 11.00L10.30 11.00Q10.34 10.94 10.46 10.69L10.46 10.69L10.46 10.69Q10.59 10.45 10.67 10.33L10.67 10.33L10.67 10.33Q10.75 10.21 10.88 10.04L10.88 10.04L10.88 10.04Q11.15 9.72 11.54 9.72L11.54 9.72L12.04 9.71L12.04 9.71Q13.29 9.71 13.29 10.33L13.29 10.33L13.29 10.33Q13.29 10.54 12.70 10.61L12.70 10.61L12.70 10.61Q12.11 10.67 12.11 10.88L12.11 10.88L12.11 18.14L12.11 18.14Q12.11 18.27 12.41 18.36L12.41 18.36L12.41 18.36Q12.70 18.44 13.00 18.52L13.00 18.52L13.00 18.52Q13.29 18.59 13.29 18.70L13.29 18.70L13.29 18.70Q13.29 19.33 11.94 19.33L11.94 19.33L11.40 19.31L10.83 19.33L10.83 19.33Q9.49 19.33 9.49 18.70L9.49 18.70L9.49 18.70Q9.49 18.55 9.78 18.49L9.78 18.49L9.78 18.49Q10.06 18.43 10.35 18.37L10.35 18.37L10.35 18.37Q10.63 18.31 10.63 18.14L10.63 18.14L10.63 12.04L10.63 12.04Q10.50 12.27 9.45 14.18L9.45 14.18L9.45 14.18Q7.69 17.38 7.05 18.13L7.05 18.13L7.05 18.12L7.05 18.12Q6.86 18.31 6.70 18.31L6.70 18.31L6.70 18.31Q6.54 18.31 6.43 18.28L6.43 18.28L6.43 18.28Q6.33 18.25 6.25 18.17L6.25 18.17L6.25 18.17Q6.17 18.09 6.13 18.04L6.13 18.04L6.13 18.04Q6.09 17.99 6.02 17.86L6.02 17.86L6.02 17.86Q5.95 17.73 5.93 17.68L5.93 17.68L2.94 12.78L2.94 18.14L2.94 18.14Q2.94 18.27 3.23 18.36L3.23 18.36L3.23 18.36Q3.53 18.44 3.82 18.52L3.82 18.52L3.82 18.52Q4.12 18.59 4.12 18.70L4.12 18.70L4.12 18.70Q4.12 19.32 2.85 19.32L2.85 19.32L2.35 19.31L1.83 19.33L1.83 19.33Q0.59 19.33 0.59 18.70L0.59 18.70L0.59 18.70Q0.59 18.54 0.88 18.48L0.88 18.48L0.88 18.48Q1.16 18.43 1.45 18.37L1.45 18.37L1.45 18.37Q1.74 18.31 1.74 18.14L1.74 18.14ZM17.53 19.49L17.53 19.49L17.53 19.49Q15.99 19.49 15.05 18.52L15.05 18.52L15.05 18.52Q14.10 17.54 14.10 16.04L14.10 16.04L14.10 16.04Q14.10 15.05 14.60 14.27L14.60 14.27L14.60 14.27Q15.10 13.49 15.95 13.07L15.95 13.07L15.95 13.07Q16.80 12.66 17.85 12.66L17.85 12.66L17.85 12.66Q19.35 12.66 20.33 13.60L20.33 13.60L20.33 13.60Q21.31 14.53 21.31 16.02L21.31 16.02L21.31 16.02Q21.31 17.04 20.81 17.84L20.81 17.84L20.81 17.84Q20.30 18.63 19.45 19.06L19.45 19.06L19.45 19.06Q18.59 19.49 17.53 19.49ZM17.81 18.73L17.81 18.73L17.81 18.73Q18.83 18.73 19.40 18.04L19.40 18.04L19.40 18.04Q19.97 17.35 19.97 16.20L19.97 16.20L19.97 16.20Q19.97 15.05 19.32 14.22L19.32 14.22L19.32 14.22Q18.66 13.38 17.63 13.38L17.63 13.38L17.63 13.38Q16.60 13.38 16.05 14.09L16.05 14.09L16.05 14.09Q15.50 14.79 15.50 15.93L15.50 15.93L15.50 15.93Q15.50 17.08 16.15 17.90L16.15 17.90L16.15 17.90Q16.80 18.73 17.81 18.73ZM28.78 19.32L28.78 19.32L28.19 19.33L28.19 19.33Q27.30 19.33 27.08 19.05L27.08 19.05L27.08 19.05Q26.99 18.93 26.99 18.75L26.99 18.75L26.99 18.75Q26.99 18.58 27.13 18.51L27.13 18.51L27.13 18.51Q27.26 18.44 27.43 18.44L27.43 18.44L27.43 18.44Q27.60 18.43 27.73 18.33L27.73 18.33L27.73 18.33Q27.87 18.23 27.87 18.01L27.87 18.01L27.88 16.02L27.88 16.02Q27.88 14.77 27.58 14.17L27.58 14.17L27.58 14.17Q27.25 13.50 26.21 13.50L26.21 13.50L26.21 13.50Q25.12 13.50 24.68 14.19L24.68 14.19L24.68 14.19Q24.28 14.83 24.28 16.06L24.28 16.06L24.28 18.01L24.28 18.01Q24.28 18.41 24.72 18.43L24.72 18.43L24.72 18.43Q25.16 18.46 25.16 18.79L25.16 18.79L25.16 18.79Q25.16 19.16 24.75 19.25L24.75 19.25L24.75 19.25Q24.45 19.32 23.89 19.32L23.89 19.32L23.30 19.33L23.30 19.33Q22.41 19.33 22.20 19.05L22.20 19.05L22.20 19.05Q22.10 18.93 22.10 18.75L22.10 18.75L22.10 18.75Q22.10 18.58 22.24 18.51L22.24 18.51L22.24 18.51Q22.37 18.44 22.54 18.44L22.54 18.44L22.54 18.44Q22.71 18.43 22.85 18.33L22.85 18.33L22.85 18.33Q22.98 18.23 22.98 18.01L22.98 18.01L22.98 10.57L22.98 10.57Q22.98 10.17 22.49 10.09L22.49 10.09L22.49 10.09Q22.15 10.04 22.08 9.97L22.08 9.97L22.08 9.97Q22.00 9.91 22.00 9.75L22.00 9.75L22.00 9.75Q22.00 9.60 22.15 9.48L22.15 9.48L22.15 9.48Q22.29 9.36 22.52 9.30L22.52 9.30L22.52 9.30Q22.93 9.19 23.44 9.19L23.44 9.19L23.44 9.19Q24.29 9.19 24.29 9.70L24.29 9.70L24.29 13.67L24.29 13.67Q25.22 12.62 26.64 12.62L26.64 12.62L26.64 12.62Q28.06 12.62 28.62 13.35L28.62 13.35L28.62 13.35Q29.18 14.08 29.18 15.55L29.18 15.55L29.17 18.01L29.17 18.01Q29.17 18.41 29.61 18.43L29.61 18.43L29.61 18.43Q30.05 18.46 30.05 18.79L30.05 18.79L30.05 18.79Q30.05 19.16 29.64 19.25L29.64 19.25L29.64 19.25Q29.33 19.32 28.78 19.32ZM32.03 14.98L32.03 14.98L32.03 14.98Q31.77 14.98 31.46 14.78L31.46 14.78L31.46 14.78Q31.14 14.58 31.14 14.26L31.14 14.26L31.14 14.26Q31.14 13.93 31.32 13.64L31.32 13.64L31.32 13.64Q31.51 13.36 31.80 13.18L31.80 13.18L31.80 13.18Q32.09 13.00 32.48 12.87L32.48 12.87L32.48 12.87Q33.20 12.65 34.02 12.65L34.02 12.65L34.02 12.65Q35.40 12.65 36.02 13.26L36.02 13.26L36.02 13.26Q36.65 13.87 36.65 15.28L36.65 15.28L36.64 17.29L36.64 17.29Q36.64 18.03 36.83 18.21L36.83 18.21L36.83 18.21Q36.87 18.26 37.13 18.33L37.13 18.33L37.13 18.33Q37.82 18.55 37.82 18.67L37.82 18.67L37.82 18.67Q37.82 19.39 36.35 19.39L36.35 19.39L36.35 19.39Q35.80 19.39 35.63 19.14L35.63 19.14L35.63 19.14Q35.46 18.89 35.45 18.25L35.45 18.25L35.45 18.25Q35.14 18.80 34.51 19.14L34.51 19.14L34.51 19.14Q33.89 19.48 33.17 19.48L33.17 19.48L33.17 19.48Q32.45 19.48 31.95 19.30L31.95 19.30L31.95 19.30Q31.45 19.11 31.14 18.70L31.14 18.70L31.14 18.70Q30.83 18.29 30.83 17.81L30.83 17.81L30.83 17.81Q30.83 17.33 30.94 17.04L30.94 17.04L30.94 17.04Q31.05 16.75 31.21 16.55L31.21 16.55L31.21 16.55Q31.38 16.35 31.66 16.19L31.66 16.19L31.66 16.19Q31.94 16.04 32.19 15.94L32.19 15.94L32.19 15.94Q32.44 15.85 32.83 15.78L32.83 15.78L32.83 15.78Q33.40 15.67 33.79 15.62L33.79 15.62L33.79 15.62Q34.18 15.58 34.19 15.57L34.19 15.57L34.19 15.57Q34.23 15.57 34.66 15.52L34.66 15.52L34.66 15.52Q35.09 15.48 35.33 15.34L35.33 15.34L35.33 15.34Q35.33 14.04 34.99 13.64L34.99 13.64L34.99 13.64Q34.68 13.30 33.97 13.30L33.97 13.30L33.97 13.30Q33.27 13.30 32.92 13.66L32.92 13.66L32.92 13.66Q32.57 14.02 32.57 14.80L32.57 14.80L32.57 14.95L32.57 14.95Q32.29 14.98 32.03 14.98ZM35.33 15.96L35.33 15.96L35.33 15.96Q34.87 16.13 34.29 16.19L34.29 16.19L34.29 16.19Q33.70 16.26 33.37 16.34L33.37 16.34L33.37 16.34Q33.03 16.43 32.81 16.56L32.81 16.56L32.81 16.56Q32.29 16.86 32.29 17.60L32.29 17.60L32.29 17.60Q32.29 18.77 33.65 18.77L33.65 18.77L33.65 18.77Q34.84 18.77 35.15 17.64L35.15 17.64L35.15 17.64Q35.33 17.00 35.33 15.96ZM40.50 19.32L40.50 19.32L39.92 19.33L39.92 19.33Q39.02 19.33 38.81 19.05L38.81 19.05L38.81 19.05Q38.71 18.93 38.71 18.75L38.71 18.75L38.71 18.75Q38.71 18.58 38.85 18.51L38.85 18.51L38.85 18.51Q38.99 18.44 39.15 18.44L39.15 18.44L39.15 18.44Q39.32 18.43 39.46 18.33L39.46 18.33L39.46 18.33Q39.59 18.23 39.59 18.01L39.59 18.01L39.59 14.11L39.59 14.11Q39.59 13.90 39.44 13.80L39.44 13.80L39.44 13.80Q39.29 13.70 39.11 13.69L39.11 13.69L39.11 13.69Q38.62 13.66 38.62 13.38L38.62 13.38L38.62 13.38Q38.62 12.93 39.52 12.77L39.52 12.77L39.52 12.77Q39.72 12.73 39.90 12.73L39.90 12.73L39.90 12.73Q40.49 12.73 40.66 12.90L40.66 12.90L40.66 12.90Q40.83 13.08 40.83 13.68L40.83 13.68L40.83 13.68Q41.77 12.63 43.39 12.63L43.39 12.63L43.39 12.63Q43.95 12.63 44.48 12.96L44.48 12.96L44.48 12.96Q45.01 13.30 45.30 13.75L45.30 13.75L45.30 13.75Q46.46 12.62 47.89 12.62L47.89 12.62L47.89 12.62Q49.53 12.62 49.98 14.03L49.98 14.03L49.98 14.03Q50.23 14.79 50.23 16.10L50.23 16.10L50.23 18.01L50.23 18.01Q50.23 18.41 50.67 18.43L50.67 18.43L50.67 18.43Q51.11 18.46 51.11 18.79L51.11 18.79L51.11 18.79Q51.11 19.16 50.70 19.25L50.70 19.25L50.70 19.25Q50.39 19.32 49.84 19.32L49.84 19.32L49.25 19.33L49.25 19.33Q48.36 19.33 48.15 19.05L48.15 19.05L48.15 19.05Q48.05 18.93 48.05 18.75L48.05 18.75L48.05 18.75Q48.05 18.58 48.19 18.51L48.19 18.51L48.19 18.51Q48.32 18.44 48.49 18.44L48.49 18.44L48.49 18.44Q48.66 18.43 48.79 18.33L48.79 18.33L48.79 18.33Q48.93 18.23 48.93 18.01L48.93 18.01L48.93 15.91L48.93 15.91Q48.93 14.35 48.58 13.92L48.58 13.92L48.58 13.92Q48.25 13.50 47.65 13.50L47.65 13.50L47.65 13.50Q47.04 13.50 46.59 13.66L46.59 13.66L46.59 13.66Q46.14 13.82 45.86 14.16L45.86 14.16L45.86 14.16Q45.57 14.50 45.57 14.96L45.57 14.96L45.57 18.01L45.57 18.01Q45.57 18.41 46.01 18.43L46.01 18.43L46.01 18.43Q46.45 18.46 46.45 18.79L46.45 18.79L46.45 18.79Q46.45 19.16 46.04 19.25L46.04 19.25L46.04 19.25Q45.73 19.32 45.18 19.32L45.18 19.32L44.59 19.33L44.59 19.33Q43.70 19.33 43.48 19.05L43.48 19.05L43.48 19.05Q43.39 18.93 43.39 18.75L43.39 18.75L43.39 18.75Q43.39 18.58 43.52 18.51L43.52 18.51L43.52 18.51Q43.66 18.44 43.83 18.44L43.83 18.44L43.83 18.44Q44.00 18.43 44.13 18.33L44.13 18.33L44.13 18.33Q44.27 18.23 44.27 18.01L44.27 18.01L44.27 15.98L44.27 15.98Q44.27 14.69 44.04 14.21L44.04 14.21L44.04 14.21Q43.72 13.50 42.92 13.50L42.92 13.50L42.92 13.50Q41.94 13.50 41.42 14L41.42 14L41.42 14Q40.89 14.50 40.89 15.42L40.89 15.42L40.89 18.01L40.89 18.01Q40.89 18.41 41.33 18.43L41.33 18.43L41.33 18.43Q41.77 18.46 41.77 18.79L41.77 18.79L41.77 18.79Q41.77 19.16 41.36 19.25L41.36 19.25L41.36 19.25Q41.05 19.32 40.50 19.32ZM52.68 18.57L52.68 18.57L52.68 18.57Q51.73 17.64 51.73 16.11L51.73 16.11L51.73 16.11Q51.73 14.57 52.69 13.61L52.69 13.61L52.69 13.61Q53.64 12.65 55.12 12.65L55.12 12.65L55.12 12.65Q56.29 12.65 57.09 13.40L57.09 13.40L57.09 13.40Q57.89 14.16 57.89 15.30L57.89 15.30L57.89 15.30Q57.89 15.85 57.02 15.85L57.02 15.85L53.06 15.85L53.06 15.85Q53.07 16.96 53.78 17.72L53.78 17.72L53.78 17.72Q54.48 18.48 55.56 18.48L55.56 18.48L55.56 18.48Q56.27 18.48 56.94 18.06L56.94 18.06L56.94 18.06Q57.29 17.84 57.39 17.84L57.39 17.84L57.39 17.84Q57.49 17.84 57.62 17.94L57.62 17.94L57.62 17.94Q57.74 18.04 57.74 18.18L57.74 18.18L57.74 18.18Q57.74 18.56 57.26 18.88L57.26 18.88L57.26 18.88Q56.78 19.20 56.20 19.35L56.20 19.35L56.20 19.35Q55.62 19.50 55.18 19.50L55.18 19.50L55.18 19.50Q53.63 19.50 52.68 18.57ZM56.64 15.13L56.64 15.13L56.64 15.13Q56.62 14.35 56.23 13.86L56.23 13.86L56.23 13.86Q55.83 13.36 55.07 13.36L55.07 13.36L55.07 13.36Q54.30 13.36 53.73 13.91L53.73 13.91L53.73 13.91Q53.16 14.46 53.13 15.16L53.13 15.16L54.73 15.16L54.73 15.16Q55.79 15.16 56.64 15.13ZM63.87 14.18L63.87 14.18Q63.58 13.81 63.04 13.59L63.04 13.59L63.04 13.59Q62.51 13.36 61.84 13.36L61.84 13.36L61.84 13.36Q61.18 13.36 60.72 13.75L60.72 13.75L60.72 13.75Q59.81 14.49 59.81 15.95L59.81 15.95L59.81 15.95Q59.81 17.08 60.43 17.86L60.43 17.86L60.43 17.86Q61.04 18.64 62.02 18.64L62.02 18.64L62.02 18.64Q63 18.64 63.43 18.23L63.43 18.23L63.43 18.23Q63.87 17.83 63.87 16.88L63.87 16.88L63.87 14.18ZM61.98 12.63L61.98 12.63L61.98 12.63Q62.43 12.63 62.99 12.77L62.99 12.77L62.99 12.77Q63.55 12.92 63.87 13.08L63.87 13.08L63.87 10.79L63.87 10.79Q63.87 10.17 63.38 10.12L63.38 10.12L63.38 10.12Q63.33 10.12 63.25 10.11L63.25 10.11L63.25 10.11Q63.18 10.10 63.14 10.10L63.14 10.10L63.14 10.10Q63.11 10.10 63.06 10.09L63.06 10.09L63.06 10.09Q63.01 10.08 62.98 10.06L62.98 10.06L62.98 10.06Q62.96 10.05 62.94 10.03L62.94 10.03L62.94 10.03Q62.89 9.99 62.89 9.83L62.89 9.83L62.89 9.83Q62.89 9.67 63.10 9.50L63.10 9.50L63.10 9.50Q63.49 9.19 64.13 9.19L64.13 9.19L64.13 9.19Q64.83 9.19 64.94 9.27L64.94 9.27L64.94 9.27Q65.17 9.43 65.17 9.70L65.17 9.70L65.17 17.18L65.17 17.18Q65.17 17.94 65.34 18.16L65.34 18.16L65.34 18.16Q65.51 18.38 65.64 18.43L65.64 18.43L65.64 18.43Q65.78 18.48 65.87 18.51L65.87 18.51L65.87 18.51Q65.97 18.55 66.01 18.56L66.01 18.56L66.01 18.56Q66.06 18.58 66.12 18.62L66.12 18.62L66.12 18.62Q66.23 18.68 66.23 18.81L66.23 18.81L66.23 18.81Q66.23 19.10 65.92 19.23L65.92 19.23L65.92 19.23Q65.62 19.37 65.12 19.37L65.12 19.37L65.12 19.37Q64.61 19.37 64.39 19.17L64.39 19.17L64.39 19.17Q64.16 18.98 63.99 18.47L63.99 18.47L63.99 18.47Q63.43 19.46 61.65 19.46L61.65 19.46L61.65 19.46Q60.23 19.46 59.34 18.52L59.34 18.52L59.34 18.52Q58.45 17.58 58.45 16.07L58.45 16.07L58.45 16.07Q58.45 14.57 59.44 13.60L59.44 13.60L59.44 13.60Q60.43 12.63 61.98 12.63Z"></path></g><!----><!----></svg>